<svg xmlns="http://www.w3.org/2000/svg" xmlns:xlink="http://www.w3.org/1999/xlink" viewBox="0 0 80 80"><defs><style>.cls-1{fill:url(#Degradado_sin_nombre_64);}.cls-2{fill:url(#Degradado_sin_nombre_64-2);}.cls-3{fill:url(#linear-gradient);}.cls-4{fill:#c2e6fd;}.cls-5{fill:#0052a1;}.cls-6{fill:#fff;}.cls-7{fill:gray;}.cls-8{fill:url(#linear-gradient-2);}.cls-9{fill:#ccc;}.cls-10{fill:#f2f2f2;}.cls-11{fill:#b3b3b3;}.cls-12{fill:url(#linear-gradient-3);}.cls-13{fill:url(#linear-gradient-4);}.cls-14{fill:url(#linear-gradient-5);}</style><radialGradient id="Degradado_sin_nombre_64" cx="40" cy="40" r="40" gradientUnits="userSpaceOnUse"><stop offset="0" stop-opacity="0.3"/><stop offset="1" stop-color="#fff" stop-opacity="0"/></radialGradient><radialGradient id="Degradado_sin_nombre_64-2" cy="8451.88" r="28.12" gradientTransform="translate(0 -1035.97) scale(1 0.13)" xlink:href="#Degradado_sin_nombre_64"/><linearGradient id="linear-gradient" x1="14.99" y1="58.6" x2="64.04" y2="58.6" gradientUnits="userSpaceOnUse"><stop offset="0" stop-color="#ccc"/><stop offset="0.51" stop-color="#f2f2f2"/><stop offset="1" stop-color="#ccc"/></linearGradient><linearGradient id="linear-gradient-2" x1="-323.56" y1="23.21" x2="-321.64" y2="23.21" gradientTransform="translate(348.48 25.43) rotate(0.04)" gradientUnits="userSpaceOnUse"><stop offset="0" stop-color="#999"/><stop offset="0.51" stop-color="#f2f2f2"/><stop offset="1" stop-color="#969696"/></linearGradient><linearGradient id="linear-gradient-3" x1="254.35" y1="21.41" x2="256.2" y2="21.41" gradientTransform="matrix(0, 1, -1, 0, 67.81, -194.19)" xlink:href="#linear-gradient-2"/><linearGradient id="linear-gradient-4" x1="265.92" y1="21.41" x2="267.77" y2="21.41" gradientTransform="matrix(0, 1, -1, 0, 79.47, -203.87)" xlink:href="#linear-gradient-2"/><linearGradient id="linear-gradient-5" x1="33.07" y1="17.09" x2="50.9" y2="38.56" gradientUnits="userSpaceOnUse"><stop offset="0" stop-color="#eecebd"/><stop offset="1" stop-color="#b67363"/></linearGradient></defs><g id="Capa_2" data-name="Capa 2"><g id="Paleta_de_color" data-name="Paleta de color"><rect class="cls-1" width="80" height="80"/><path class="cls-2" d="M68.13,76.3c0,2-12.59,3.7-28.13,3.7s-28.13-1.66-28.13-3.7S24.47,72.6,40,72.6,68.13,74.25,68.13,76.3Z"/><path class="cls-3" d="M64,58.6A18.18,18.18,0,0,1,45.86,76.79H33.18A18.19,18.19,0,0,1,15,58.6h0A18.2,18.2,0,0,1,33.18,40.41H45.86A18.19,18.19,0,0,1,64,58.6Z"/><polygon class="cls-4" points="39.64 63.43 38.97 62.03 28.9 41.08 28.39 40.03 29.57 40.02 49.55 39.97 50.72 39.96 50.23 41.02 40.3 62.02 39.64 63.43 39.64 63.43"/><path class="cls-5" d="M42.53,45.17a2.86,2.86,0,1,1-2.86-2.86A2.86,2.86,0,0,1,42.53,45.17Z"/><path class="cls-5" d="M38.41,47.62s-2.13,2.07-1.92,4.51,1.28,8.4,2.38,9.51l.73.74V46.9Zm1.23,14.76,0,0,0,0v0h0c-.05.06,0,0,0,0s.06,0,0,0h0Zm3.11-10.25c.2-2.44-1.93-4.51-1.93-4.51l-1.18-.72V62.38l.72-.74C41.47,60.53,42.54,54.56,42.75,52.13Z"/><path class="cls-6" d="M49.55,40.7l-9.92,21L29.57,40.77l20-.07m2.35-1.48H49.55l-20,.05H27.22l1,2.12L38.3,62.35l1.34,2.8L41,62.34l9.92-21,1-2.12Z"/><path class="cls-7" d="M42.92,71a3.15,3.15,0,1,1-3.15-3.15A3.15,3.15,0,0,1,42.92,71Z"/><path class="cls-6" d="M42.78,70.77a3.15,3.15,0,1,1-3.15-3.14A3.15,3.15,0,0,1,42.78,70.77Z"/><path d="M23.87,43.5a5.36,5.36,0,0,1,1-3.23h0a5.61,5.61,0,0,1,3.9-2.08h0a30.8,30.8,0,0,0,4.5-.89h0A9.58,9.58,0,0,1,36.32,37h0v1.76A7.8,7.8,0,0,0,33.7,39h0a32.1,32.1,0,0,1-4.72.94h0a3.84,3.84,0,0,0-2.73,1.38h0a3.64,3.64,0,0,0-.62,2.19h0A7.13,7.13,0,0,0,26,45.61h0a1.44,1.44,0,0,0,.06.16h0l-1.64.63a8.73,8.73,0,0,1-.51-2.9Z"/><rect class="cls-8" x="24.9" y="45.35" width="1.92" height="6.14" transform="translate(-12.55 9.21) rotate(-16.3)"/><path class="cls-9" d="M32.22,54.86A4.24,4.24,0,1,1,28,50.62,4.24,4.24,0,0,1,32.22,54.86Z"/><path class="cls-10" d="M31.49,54.86A3.51,3.51,0,1,1,28,51.35,3.51,3.51,0,0,1,31.49,54.86Z"/><path class="cls-11" d="M29.29,54.86A1.32,1.32,0,1,1,28,53.54,1.31,1.31,0,0,1,29.29,54.86Z"/><path d="M59.32,54.6a6,6,0,0,0-5-4.17h0a6,6,0,0,0-6.11,2.34,8.48,8.48,0,0,0-1.39,3l1.45.28s0-.06,0-.19a6.8,6.8,0,0,1,1.43-2.67A4.48,4.48,0,0,1,54,51.88a4.51,4.51,0,0,1,3.7,2.67,6.59,6.59,0,0,1,.49,3,1.39,1.39,0,0,1,0,.2l1.46.19A8.48,8.48,0,0,0,59.32,54.6Z"/><rect class="cls-12" x="41.24" y="60.17" width="10.79" height="1.84" transform="translate(-21.23 97.17) rotate(-80.64)"/><rect class="cls-13" x="52.66" y="62.04" width="10.78" height="1.84" transform="translate(-13.47 110.07) rotate(-80.69)"/><path d="M47.17,67.11a1.47,1.47,0,1,1-2.91-.48A1.47,1.47,0,0,1,46,65.41,1.49,1.49,0,0,1,47.17,67.11Z"/><path d="M58.72,69a1.47,1.47,0,1,1-1.22-1.69A1.47,1.47,0,0,1,58.72,69Z"/><path d="M55,51.06Zm-1.39-.5s.21-.57.45-1.4h0a25.2,25.2,0,0,0,.71-2.93h0a5.12,5.12,0,0,0,0-2.24h0A7.69,7.69,0,0,0,49,39.76h0l.23-1.46a9.12,9.12,0,0,1,6.9,5.13h0a6.07,6.07,0,0,1,.07,3h0A30.66,30.66,0,0,1,55,51.06h0l-1.39-.5Z"/><path d="M39.52,3.08s-8.34-9-18.72,3.74-8.16,18-4.6,25-3,9.84-3,9.84,9.38,4.44,12.63-6.41S39.77,9.08,39.77,9.08Z"/><path d="M38.88,3.08s8.33-9,18.72,3.74,8.16,18,4.6,25,3,9.84,3,9.84-9.37,4.44-12.62-6.41S38.63,9.08,38.63,9.08Z"/><path class="cls-14" d="M58.28,24.89A18.74,18.74,0,1,1,39.54,6.15,18.74,18.74,0,0,1,58.28,24.89Z"/><path class="cls-5" d="M53.56,55.82a0,0,0,0,1-.05,0h-.58a0,0,0,0,1,0,0h0a0,0,0,0,1,0,0h.58a0,0,0,0,1,.05,0Z"/><path class="cls-5" d="M53,55.67h.54a.43.43,0,0,0,.16-.34.43.43,0,1,0-.86,0A.43.43,0,0,0,53,55.67Z"/><path class="cls-5" d="M54.58,55.28c-.34-.11-.4,0-.6.15s0,.46.05.62a1.5,1.5,0,0,1-.6.39V56H53v.47a1.45,1.45,0,0,1-.62-.4c.1-.16.24-.42,0-.62s-.26-.26-.59-.15a10.5,10.5,0,0,1-2.81.59.66.66,0,0,0,.6.37.57.57,0,0,0,.6.31c.11.16.16.22.48.25.1.17.14.3.49.23.1.08.12.2.58.07-.16.25-.29.45.42.83-.24.22-.5.56.34,1-.13.25-.38.56.24.93a.36.36,0,0,0,.14.52c-.12.26-.09.38.06.45-.09.16-.22.36.08.48-.08.15-.15.31,0,.36v.14s0,.06.06.06.08-.06.08-.06v-.15h0c.21,0,.14-.21.06-.36.3-.12.16-.32.07-.48.16-.07.18-.19.06-.45.25-.18.24-.36.15-.52.62-.37.36-.68.23-.93.84-.42.58-.76.34-1,.72-.38.58-.58.42-.83.46.13.49,0,.58-.07.36.07.4-.06.49-.23.32,0,.38-.09.49-.25a.58.58,0,0,0,.6-.31.67.67,0,0,0,.6-.37A10.32,10.32,0,0,1,54.58,55.28Zm-1.45,5.39c-.09,0,0-.08,0-.12Zm-.81-3.46a.65.65,0,0,0,.56.08s.11.05.19.05v.35a.44.44,0,0,1-.17,0,1.79,1.79,0,0,0-.47-.07C51.91,57.4,52.22,57.26,52.32,57.21Zm.23,1.19c0-.34.37-.37.53-.37l0,.68C52.92,58.7,52.55,58.53,52.55,58.4Zm.25,1c0-.16.18-.23.3-.27v.56C53,59.64,52.79,59.55,52.8,59.37Zm.18.71c0-.06.09-.14.14-.17v.3A.18.18,0,0,1,53,60.08Zm.16.89v.24C53,61.11,53.08,61,53.14,61Zm0,.44v.18C53.06,61.54,53.11,61.46,53.15,61.41Zm.17-.86s.1.11,0,.12Zm0,1V61.4C53.34,61.45,53.4,61.54,53.29,61.59Zm0-.38V61C53.38,61,53.47,61.11,53.3,61.21Zm.18-1.13a.2.2,0,0,1-.15.13v-.3S53.49,60,53.48,60.08Zm-.13-.42V59.1c.13,0,.29.12.3.27S53.49,59.64,53.35,59.66Zm0-1,0-.67c.16,0,.49,0,.51.37C53.9,58.53,53.54,58.69,53.37,58.7ZM54,57.64a1.71,1.71,0,0,0-.47.07.4.4,0,0,1-.16,0v-.36a.21.21,0,0,0,.16-.05.65.65,0,0,0,.56-.08C54.23,57.26,54.55,57.4,54,57.64Z"/></g></g></svg>